<svg width="1700" height="1700" viewBox="0 0 1700 1700" fill="none" xmlns="http://www.w3.org/2000/svg">
<path d="M595.1 652.759C621.022 653.813 644.236 661.985 665.863 675.028C683.076 685.408 697.63 698.797 710.022 715.1C710.573 715.792 710.724 716.283 710.769 717.183C709.841 721.345 706.809 723.733 704.501 726.459C687.88 746.092 677.14 768.845 668.909 792.919C666.6 799.673 665.423 806.774 663.939 813.766C663.596 815.377 663.436 817.105 661.486 818.276C660.869 818.41 660.611 818.4 660.061 818.134C659.739 817.473 659.709 817.068 659.724 816.36C660.224 813.915 659.939 811.753 659.823 809.262C659.505 787.157 651.716 768.603 635.847 753.664C624.004 742.514 609.996 735.827 593.704 733.861C565.607 730.47 542.683 740.17 524.663 761.429C515.076 772.739 509.877 786.253 508.393 801.523C507.611 804.05 508.215 806.239 507.765 808.735C507.553 886.086 507.526 963.077 507.5 1040.07C507.498 1047 507.5 1047 500.816 1047C477.652 1047 454.487 1046.91 431.325 1047.09C427.439 1047.13 426.4 1046.16 426.407 1042.21C426.531 962.884 426.614 883.559 426.405 804.235C426.362 787.9 420.063 773.46 409.808 760.859C398.641 747.138 384.341 738.499 366.962 734.742C344.671 729.923 324.519 734.722 306.234 747.83C290.526 759.09 281.304 774.753 276.868 793.339C276 796.975 275.558 800.801 275.555 804.541C275.482 883.532 275.453 962.524 275.618 1041.51C275.628 1046.22 274.263 1047.14 269.868 1047.1C246.206 1046.89 222.54 1046.93 198.877 1047.08C195.475 1047.1 194.41 1046.37 194.415 1042.76C194.525 960.937 194.197 879.11 194.739 797.289C194.856 779.563 199.497 762.201 207.073 745.932C214.62 729.725 223.841 714.712 236.252 701.552C257.89 678.608 283.851 663.571 314.35 655.965C330.528 651.93 346.999 651.01 363.43 652.189C381.304 653.471 398.655 657.672 415.148 665.174C435.228 674.307 452.713 686.932 467.688 702.731C496.435 673.599 530.122 655.269 571.98 652.974C579.827 651.96 587.251 652.71 595.1 652.759Z" fill="#826DF8"/>
<path d="M1467.17 650.759C1467.39 675.159 1467.4 699.31 1467.56 723.46C1467.58 726.341 1466.7 727.103 1463.9 727.061C1453.58 726.908 1443.25 726.999 1432.92 726.999C1385.61 727 1338.3 726.927 1290.99 727.038C1273.63 727.079 1256.19 741.432 1252.45 759.993C1247.73 783.409 1263.85 803.161 1283.52 808.523C1285.23 808.99 1287.11 808.997 1288.91 808.998C1319.06 809.027 1349.21 808.924 1379.37 809.051C1405.77 809.162 1429.55 817.693 1449.82 834.236C1471.7 852.09 1485.17 875.619 1491.52 903.206C1496.3 923.964 1494.29 944.207 1487.48 964.555C1487.34 965.167 1487.22 965.392 1486.8 965.858C1478.5 968.178 1470.36 969.84 1464.01 975.833C1456.89 982.548 1451.95 990.276 1451.79 1000.39C1451.7 1005.52 1451.64 1010.66 1452.15 1016.16C1452.1 1016.79 1452.03 1017.04 1451.71 1017.57C1436.18 1029.48 1419.73 1038.6 1400.65 1042.43C1393.52 1043.86 1386.28 1044.76 1379.14 1044.79C1319.57 1045.04 1260 1044.93 1199.97 1044.86C1199.33 1044.69 1199.16 1044.59 1198.83 1044.24C1198.61 1043.49 1198.55 1042.98 1198.46 1042.09C1198.37 1041.47 1198.31 1041.23 1198.41 1040.66C1203.83 1037.52 1209.63 1035.99 1214.97 1033.25C1234.07 1023.46 1249.08 1009.44 1260.82 991.494C1265.69 984.038 1269.48 976.24 1272.68 967.624C1273.15 967.16 1273.38 967.005 1274 966.719C1277.46 965.582 1280.64 965.686 1283.8 965.685C1313.63 965.671 1343.47 965.799 1373.3 965.636C1395.01 965.518 1412.81 947.269 1412.06 925.618C1411.51 910.004 1403.3 899.026 1389.45 892.299C1383.72 889.521 1377.61 888.212 1371.08 888.247C1341.75 888.406 1312.42 888.336 1283.08 888.296C1279.94 888.292 1276.72 888.668 1273.41 886.925C1267.17 872.617 1257.2 861.104 1248.94 848.508C1247.39 846.135 1245.28 844.131 1242.95 842.543C1238.67 839.632 1234.78 836.282 1230.92 832.869C1223.76 826.534 1214.58 824.063 1206.11 820.332C1197.75 816.649 1188.64 815.016 1179.56 812.076C1177.67 810.565 1176.47 809.018 1175.86 807.038C1173 797.645 1170.62 788.21 1170.11 778.288C1169.41 764.772 1169.95 751.427 1173.22 738.255C1174.03 735.012 1175.03 731.856 1177.22 728.692C1177.82 727.803 1178.31 727.428 1179.33 727.052C1196.11 726.301 1212.44 726.812 1228.77 726.661C1234.43 726.609 1240.1 726.727 1245.76 726.621C1251.87 726.506 1253.07 725.359 1253.11 719.22C1253.23 700.725 1253.07 682.228 1253.23 663.733C1253.25 660.88 1252.42 657.576 1256.07 655.379C1261.9 652.678 1267.8 652.015 1273.56 651.174C1279.57 650.295 1285.73 650.112 1291.83 650.104C1349.74 650.037 1407.66 650.073 1466.03 650.14C1466.67 650.305 1466.84 650.407 1467.17 650.759Z" fill="#1E7AFF"/>
<path d="M1179.85 727.915C1179.21 728.18 1178.94 728.377 1178.56 728.821C1175.76 731.788 1172.3 731.29 1169.01 731.295C1139.71 731.339 1110.39 731.709 1081.1 731.174C1062.96 730.843 1046.79 744.392 1042.49 758.858C1037.05 777.112 1045.7 796.979 1063.64 805.556C1068.07 807.675 1072.65 808.731 1077.61 808.719C1106.25 808.652 1134.89 808.656 1163.53 808.699C1168.69 808.707 1173.83 809 1179.08 811.08C1182.27 812.04 1183.78 814.133 1184.92 816.651C1190.3 828.578 1197.69 839.301 1206.48 848.806C1214.01 856.952 1223.07 863.589 1232.84 869.072C1243.77 875.206 1255.15 880.096 1267.62 882.162C1269.49 882.471 1271.65 882.781 1272.93 885.175C1275.47 887.749 1276.82 890.507 1277.74 893.591C1284.42 916.128 1284.7 938.713 1278.34 961.356C1277.67 963.749 1276.98 966.209 1274.05 967.645C1273.67 967.867 1273.57 968.02 1273.51 968.08C1271.16 970.813 1267.99 970.287 1265.06 970.302C1247.42 970.395 1229.77 970.336 1212.13 970.347C1199.86 970.354 1199.85 970.355 1199.85 982.385C1199.84 998.865 1199.87 1015.35 1199.83 1031.83C1199.82 1034.64 1200.12 1037.51 1198.72 1040.63C1198.58 1041.08 1198.52 1041.4 1198.47 1041.56C1176.86 1048.08 1154.7 1046.26 1132.7 1046.32C1085.42 1046.46 1038.14 1046.3 990.851 1046.47C986.444 1046.48 985.289 1045.37 985.387 1040.97C985.693 1027.33 985.49 1013.67 985.446 999.556C985.337 998.622 985.334 998.15 985.556 997.356C988.705 992.152 993.265 988.709 997.226 984.726C1001.19 980.74 1005.75 977.168 1003.51 970.148C1003.83 969.574 1003.99 969.359 1004.48 968.879C1007.98 967.238 1011.36 967.724 1014.66 967.721C1062.96 967.677 1111.27 967.717 1159.58 967.681C1178.44 967.667 1192.62 956.899 1197.9 938.709C1203.24 920.314 1192.87 899.8 1174.88 893.203C1169.68 891.294 1164.37 890.251 1158.77 890.268C1130.78 890.352 1102.8 890.124 1074.81 890.354C1041.49 890.629 1013.95 877.351 991.097 854.11C972.504 835.196 961.188 812.148 957.689 785.739C956.749 778.639 955.308 771.218 957.902 763.616C958.926 757.569 963.688 754.882 967.507 751.698C978.574 742.474 989.393 732.958 1000.57 723.869C1002.95 721.931 1002.98 720.204 1000.88 718.102C996.425 713.641 991.95 709.198 987.549 704.682C986.173 703.27 984.536 702.034 983.923 699.641C983.94 699.049 983.995 698.815 984.263 698.291C1002.41 674.663 1026.02 660.369 1054.69 654.441C1061.3 653.074 1068.12 652.625 1074.93 652.628C1132.86 652.65 1190.79 652.625 1248.72 652.707C1250.62 652.709 1253.09 651.362 1254.53 654.487C1253.86 657.8 1251.4 658.497 1249.07 659.425C1234.06 665.393 1220.6 673.907 1209.14 685.234C1199.88 694.378 1192.19 704.789 1186.64 716.708C1184.84 720.56 1183.64 724.859 1179.85 727.915Z" fill="#04ABCF"/>
<path d="M984.12 697.997C984.477 698 984.487 698.499 984.489 698.749C983.264 704.19 979.365 707.854 976.726 712.212C968.86 725.201 964.173 739.245 961.855 754.119C961.392 757.093 959.647 759.244 958.563 762.213C956.315 767.651 951.962 770.447 947.39 772.793C945.119 773.959 942.856 772.767 941.113 770.941C922.038 750.956 898.879 738.947 871.421 735.508C845.755 732.293 821.709 737.489 799.659 750.81C766.955 770.568 748.251 799.613 743.674 837.635C743.412 839.808 743.674 858.5 740 854.5C738.735 853.4 738.426 839.676 737.984 838.091C739.419 825.464 739.839 813.308 737.415 800.759C737.169 778.86 731.143 758.817 722.017 739.64C719.548 734.452 715.4 730.157 712.683 725.015C711.443 722.667 710.078 720.401 709.746 717.303C709.738 716.579 709.889 716.216 710.189 715.59C722.141 703.93 734.385 693.018 748.188 684.097C768.853 670.74 791.22 661.302 815.302 655.984C833.791 651.901 852.577 650.941 871.309 652.173C899.283 654.014 925.663 662.148 950.39 675.43C962.275 681.814 973.131 689.745 984.12 697.997Z" fill="#00F4EC"/>
<path d="M986.454 997.6C986.273 998.264 986.051 998.527 985.618 998.942C970.932 1011.55 954.909 1021.61 937.529 1029.45C921.86 1036.51 905.496 1041.27 888.5 1044.09C877.286 1045.95 865.963 1047.11 854.728 1046.81C826.263 1046.06 798.703 1040.86 772.774 1028.19C761.86 1022.85 751.475 1016.78 740.966 1010.14C739.618 1009.74 738.992 1009.06 738.634 1007.59C738.315 1004.46 738.144 1001.8 738.145 999.131C738.156 955.147 738.146 911.163 738.16 867.179C738.161 864.514 739.948 834.062 740.5 831C743.588 828.505 742.904 856.644 743.504 860.216C744.165 864.15 744.663 868.111 745.455 872.027C749.473 891.892 758.254 909.334 771.68 924.538C789.28 944.47 811.096 957.179 837.162 961.884C871.212 968.03 901.806 959.765 928.786 938.047C933.214 934.483 937.21 930.502 941.252 926.545C945.522 922.365 947.706 922.191 952.327 926.278C958.558 931.791 965.139 936.881 971.392 942.356C979.277 949.259 987.414 955.862 995.312 962.747C997.029 964.243 998.496 965.669 998.21 968.51C996.856 971.168 994.602 971.239 992.488 971.234C988.193 971.222 986.789 973.436 986.791 977.459C986.795 984.039 987.162 990.633 986.454 997.6Z" fill="#00F4EC"/>
<path d="M740.998 856.629C740.561 904.449 740.521 951.943 740.444 999.437C740.44 1002.08 740.861 1004.77 739.713 1007.69C736.67 1010.19 734.653 1007.95 732.82 1006.57C726.316 1001.66 720.212 996.197 714.547 990.407C705.027 980.676 696.201 970.282 688.811 958.759C677.426 941.007 668.445 922.153 663.225 901.684C661.473 894.817 660.644 887.694 660.179 880.205C659.911 878.085 660.078 876.32 659.825 874.206C659.098 857.891 659.33 841.929 659.604 825.506C660.366 822.892 659.794 820.667 660.358 818.214C662.901 808.265 664.298 798.359 667.661 788.991C675.862 766.153 686.125 744.416 702.029 725.705C704.381 722.938 706.889 720.304 709.379 717.209C712.919 718.285 713.369 721.815 715.138 724.331C724.214 737.232 730.587 751.397 734.687 766.608C737.464 776.912 739.221 787.372 739.611 798.502C740.518 811.678 739.694 824.421 740.224 837.596C740.442 839.11 740.487 840.178 740.571 841.645C740.998 849.119 740.444 848.5 740.998 856.629Z" fill="#40B0F0"/>
<path d="M660.427 879.649C663.36 893.375 666.237 906.621 671.288 919.301C680.887 943.401 693.789 965.346 711.929 984.149C720.286 992.81 728.851 1001.12 739.083 1008.01C739.755 1008.49 740.071 1008.98 740.517 1009.74C740.587 1021.69 740.528 1033.36 740.395 1045.5C739.3 1046.76 738.098 1046.49 736.962 1046.49C711.77 1046.47 686.577 1046.56 660.916 1046.3C659.583 1044.22 660.024 1042.2 660.023 1040.23C659.974 987.785 660.04 935.341 659.87 882.413C659.739 881.527 659.709 881.125 659.725 880.424C659.904 879.827 660.037 879.53 660.427 879.649Z" fill="#826DF8"/>
<path d="M1486.35 965.412C1486.65 965.217 1487.06 965.094 1487.27 965.017C1500.52 965.324 1511.8 969.601 1520.08 980.132C1529.89 992.597 1531.34 1006.6 1525.23 1020.71C1519.02 1035.03 1507.46 1043.23 1491.54 1044.09C1473.46 1045.06 1459.5 1035.85 1451.67 1018.14C1451.45 1017.85 1451.48 1017.43 1451.46 1017.21C1451.69 1015.14 1452.38 1013.55 1453.72 1012.15C1465.87 999.468 1475.85 985.32 1482.59 969.016C1483.28 967.357 1484.55 966.395 1486.35 965.412Z" fill="#A5A5A5"/>
<path d="M1179.86 728.26C1181.44 719.835 1185.7 712.587 1189.97 705.598C1202.13 685.74 1219.17 671.003 1240.06 660.781C1244.52 658.598 1249.25 656.974 1254.22 655.01C1255.01 654.96 1255.44 654.992 1256.18 655.095C1255.25 657.307 1255.51 659.669 1255.51 661.983C1255.5 682.255 1255.38 702.528 1255.59 722.798C1255.64 727.515 1254.3 729.15 1249.42 729.098C1227.99 728.87 1206.55 729.011 1185.12 728.978C1183.48 728.975 1181.84 728.656 1179.86 728.26Z" fill="#1192E6"/>
<path d="M660.997 1046.88C660.538 1046.8 660.586 1046.36 660.615 1046.15C686.898 1045.95 713.152 1045.96 739.864 1045.97C739.422 1047.82 737.715 1046.95 736.416 1046.95C711.43 1047.01 686.443 1046.98 660.997 1046.88Z" fill="#6872E1"/>
<path d="M595.269 652.629C588.153 652.977 580.765 652.995 572.906 652.984C579.904 650.971 587.469 652.27 595.269 652.629Z" fill="#6872E1"/>
<path d="M507.902 808.843C507.561 806.934 507.199 804.753 508.155 802.291C508.306 804.16 508.265 806.375 507.902 808.843Z" fill="#5760BD"/>
<path d="M1467.36 650.749C1467.11 650.873 1466.91 650.708 1466.62 650.358C1466.79 650.298 1467.09 650.393 1467.36 650.749Z" fill="#1C6DE3"/>
<path d="M1198.64 1044.25C1198.89 1044.13 1199.09 1044.29 1199.38 1044.64C1199.21 1044.7 1198.91 1044.6 1198.64 1044.25Z" fill="#1C6DE3"/>
<path d="M1198.99 1041.06C1197.29 1039.52 1197.53 1037.63 1197.53 1035.82C1197.51 1015.15 1197.6 994.483 1197.44 973.818C1197.41 969.636 1198.45 967.874 1203.02 967.915C1226.18 968.124 1249.35 968.043 1272.98 968.102C1273.83 975.933 1269.45 982.123 1265.84 988.257C1261.6 995.464 1256.18 1002.01 1250.95 1008.59C1248.09 1012.19 1244.95 1015.76 1241.3 1018.5C1230.46 1026.64 1219.59 1034.83 1206.63 1039.56C1204.24 1040.43 1201.93 1041.13 1198.99 1041.06Z" fill="#1192E6"/>
<path d="M1180.52 812.398C1180.44 812.05 1180.47 811.559 1180.46 811.314C1191.16 811.989 1200.9 816.244 1210.93 819.626C1223.86 823.984 1234.13 832.337 1244.46 840.692C1247.16 842.883 1249.66 845.345 1251.67 848.261C1256.48 855.24 1261.11 862.316 1266.5 868.927C1270 873.228 1271.76 878.857 1273.44 884.652C1273.45 885.028 1272.97 885.022 1272.73 885.038C1260.01 884.142 1248.56 879.799 1237.46 874.365C1226.17 868.84 1216.1 861.414 1207.09 852.827C1198.79 844.915 1192.36 835.304 1186.67 825.313C1184.38 821.277 1182.61 816.944 1180.52 812.398Z" fill="#1292E6"/>
<path d="M1486.21 965.154C1478.86 984.888 1467.61 1002.23 1451.74 1016.83C1447.94 1007.98 1448.52 998.83 1451.49 989.961C1456.4 975.283 1471.15 964.866 1486.21 965.154Z" fill="#6390D2"/>
<path d="M959.63 761.767C959.038 762.04 958.605 762.011 957.846 761.989C960.43 752.503 961.114 742.511 964.393 733.063C968.621 720.879 974.887 709.894 982.407 699.536C982.641 699.214 983.315 699.21 984.137 699.028C991.152 705.494 997.767 712.041 1004.5 718.461C1007.02 720.863 1005.76 722.524 1003.79 724.175C996.684 730.147 989.517 736.054 982.433 742.057C974.849 748.485 967.334 754.993 959.63 761.767Z" fill="#02D0DD"/>
<path d="M997.251 968.125C998.995 968.59 1000.4 969.302 1002.15 970.088C1002.99 970.494 1003.62 970.478 1004.3 971.003C1008.45 975.705 1006.5 978.977 1002.7 982.41C997.301 987.286 992.262 992.56 986.782 997.832C984.432 997.335 984.507 995.602 984.503 993.941C984.49 987.171 984.601 980.399 984.453 973.632C984.379 970.245 985.645 968.83 989.084 968.942C991.686 969.026 994.374 969.472 997.251 968.125Z" fill="#02D0DD"/>
<path d="M1004.47 970.996C1003.93 971.025 1003.42 970.788 1002.69 970.357C1002.94 970.122 1003.4 970.081 1004.18 970.118C1004.51 970.374 1004.5 970.552 1004.47 970.996Z" fill="#049DBC"/>
</svg>
