<?xml version="1.0" encoding="UTF-8"?><svg id="Layer_1" xmlns="http://www.w3.org/2000/svg" xmlns:xlink="http://www.w3.org/1999/xlink" viewBox="0 0 288 288"><defs><style>.cls-1{fill:url(#linear-gradient);}.cls-1,.cls-2,.cls-3,.cls-4,.cls-5,.cls-6,.cls-7,.cls-8,.cls-9,.cls-10,.cls-11,.cls-12,.cls-13,.cls-14{stroke-width:0px;}.cls-2{fill:#9097c7;}.cls-3{fill:url(#linear-gradient-6);}.cls-4{fill:#928bb7;}.cls-5{fill:#8eb1db;}.cls-6{fill:url(#linear-gradient-5);}.cls-7{fill:#a1dae2;}.cls-8{fill:#9080b5;}.cls-9{fill:#9ab8f4;}.cls-10{fill:url(#linear-gradient-2);}.cls-11{fill:url(#linear-gradient-3);}.cls-12{fill:#8b78b4;}.cls-13{fill:#89c8eb;}.cls-14{fill:url(#linear-gradient-4);}</style><linearGradient id="linear-gradient" x1="64.01" y1="46.24" x2="207.11" y2="46.24" gradientUnits="userSpaceOnUse"><stop offset="0" stop-color="#9cd5f6"/><stop offset="1" stop-color="#8b78b4"/></linearGradient><linearGradient id="linear-gradient-2" x1="85.42" y1="55.07" x2="124.54" y2="122.83" gradientUnits="userSpaceOnUse"><stop offset="0" stop-color="#2a1a7d"/><stop offset=".77" stop-color="#186092"/></linearGradient><linearGradient id="linear-gradient-3" x1="154.28" y1="105.76" x2="197.57" y2="180.73" gradientUnits="userSpaceOnUse"><stop offset="0" stop-color="#2a1a7d"/><stop offset="1" stop-color="#186092"/></linearGradient><linearGradient id="linear-gradient-4" x1="79.83" y1="125.48" x2="203.87" y2="125.48" xlink:href="#linear-gradient"/><linearGradient id="linear-gradient-5" x1="79.75" y1="58.47" x2="79.83" y2="58.47" xlink:href="#linear-gradient"/><linearGradient id="linear-gradient-6" x1="79.7" y1="58.44" x2="79.73" y2="58.44" xlink:href="#linear-gradient"/></defs><path class="cls-1" d="m207.11,29.61c-7.74,10.4-17.18,18.67-28.06,24.58-12.85,6.99-24.33,8.69-30.5,9.6-4.89.72-9.92,1.09-14.98,1.09-5.85,0-11.72-.48-17.43-1.45-23.53-4-41.34-15.63-52.13-24.69l1.98-2.57c10.49,8.81,27.8,20.13,50.66,24.01,2.39.41,4.82.72,7.27.94-2.29-.85-4.67-1.92-7.09-3.29-8.93-5.04-14.31-11.71-16.98-15.54,1.12-.34,2.25-.68,3.36-1.02,2.53,3.5,7.34,9.21,15.06,13.64,3.24,1.85,11.58,6.6,23.02,6.05,5.58-.26,19.54-2.21,29.74-14.33,4.19-4.98,7.21-11.13,8.73-17.8l3.08.76c-1.02,4.49-3.43,12.09-9.43,19.22-2.9,3.45-6.1,6.13-9.3,8.2,4.17-1.33,8.73-3.15,13.47-5.73,10.47-5.69,19.56-13.65,27.01-23.68l2.51,2.02Z"/><path class="cls-4" d="m181.71,19.55c2.98,0,5.41,2.52,5.41,5.62s-2.43,5.62-5.41,5.62-5.4-2.53-5.4-5.62,2.43-5.62,5.4-5.62Zm3.3,5.62c0-1.89-1.48-3.43-3.3-3.43s-3.29,1.54-3.29,3.43,1.48,3.43,3.29,3.43,3.3-1.54,3.3-3.43Z"/><path class="cls-4" d="m181.71,21.75c1.82,0,3.3,1.54,3.3,3.43s-1.48,3.43-3.3,3.43-3.29-1.54-3.29-3.43,1.48-3.43,3.29-3.43Z"/><path class="cls-9" d="m99.86,32.91c2.97,0,5.4,2.53,5.4,5.62s-2.43,5.62-5.4,5.62-5.4-2.52-5.4-5.62,2.43-5.62,5.4-5.62Zm3.29,5.62c0-1.89-1.48-3.43-3.29-3.43s-3.29,1.54-3.29,3.43,1.48,3.43,3.29,3.43,3.29-1.54,3.29-3.43Z"/><ellipse class="cls-9" cx="99.86" cy="38.53" rx="3.29" ry="3.43"/><path class="cls-12" d="m210.59,19.75l-2.1,16.48-3.45-6.91-8.09.91,6.75-5.18,6.9-5.3Zm-2.61,13.5l1.47-11.49-9.39,7.21,5.47-.61,2.45,4.9Z"/><polygon class="cls-12" points="209.45 21.76 207.99 33.26 205.54 28.36 200.07 28.97 209.45 21.76"/><path class="cls-7" d="m57.6,29.86l14.94,5.85-7.23,1.94-.98,8.42-3.33-8.02-3.4-8.19Zm12.04,5.69l-10.41-4.08,4.63,11.14.66-5.69,5.13-1.38Z"/><polygon class="cls-7" points="59.22 31.47 69.63 35.55 64.51 36.93 63.85 42.61 59.22 31.47"/><path class="cls-10" d="m117.42,107c-2.48-.33-2.79.15-5.85-.33-1.7-.27-7.35-1.31-13.34-5.56-11.18-7.94-15.42-21.31-16.25-24.08-2.18-7.29-2.49-13.93-2.34-18.62,26.33,13.3,40.7,29.49,48.35,40.18,5.71,7.99,8.1,17.04,6.97,18.21-1.33,1.37-7.2-8.42-17.55-9.79Z"/><path class="cls-11" d="m160.78,196.9c5.26-.71,13.45-2.54,22.09-7.69,4.8-2.86,13.78-9.16,20.39-20.56,3.34-5.76,5.06-11.07,5.99-14.81-2.38.99-6.21,2.23-11.04,2.37-2.02.06-9.18.06-16.45-4.15-9.29-5.38-15.78-15.91-15.81-27.13,0-1.8.13-9.59,5.1-17.04,2.63-3.96,5.78-6.55,7.61-8.03,1.3-1.06,4.39-3.43,8.89-5.55,5.55-2.61,9.82-3.21,9.81-3.27-.03-.13-19.61-.86-35.36,10.57-17.39,12.62-21.3,32.57-22.34,37.88-1.14,5.83-3.21,17.33,1.51,30.94,5.17,14.89,15.37,23.34,19.61,26.48Z"/><path class="cls-14" d="m202.89,66.44c3.81,12.87-4.7,23.58-5.54,24.59-2.71.18-6.6.59-11.11,1.77-19.76,5.12-30.92,19.08-32.83,21.54-2.42,3.11-11.96,16.05-12.7,35.1-.44,11.53,2.54,20.45,4.27,24.8,4.63,11.64,11.77,19.03,15.79,22.66-5.06.8-17.11,2.03-30.73-3.59-15.26-6.3-23.05-17.33-24.55-19.52-12.84-18.77-8.72-39.45-7.84-43.46,1.36-6.7,3.1-11.94,4.44-15.52,2.38-6.34,3.73-8.26,4.72-13.17.31-1.53,1.15-6.99-.23-13.73-1.99-9.74-7.47-16.18-10.24-19.02-.99-.85-2.04-1.69-3.19-2.54-3.25-2.42-6.44-4.25-9.34-5.66,0,0-2.34-1.39-4-2.21,21.34,9.73,41.56,11.81,41.56,11.81,21.43,2.21,38.52-2.37,45.56-4.58,11.57-3.61,20.56-8.48,26.72-12.37,2.1,1.59,7.07,5.83,9.21,13.09Z"/><path class="cls-6" d="m79.75,58.45s.05.02.09.04l-.09-.04Z"/><path class="cls-3" d="m79.7,58.43s.02.01.03.02c-.01-.01-.02-.01-.03-.02Z"/><path class="cls-13" d="m131.96,210.34v37.66c0,.37-.13.68-.38.94-.26.26-.57.39-.93.39h-8.28c-.37,0-.68-.13-.93-.39-.26-.26-.38-.57-.38-.94v-17.75c0-.37-.17-.57-.5-.61-.33-.04-.61.09-.83.39l-9.29,14.94c-.18.3-.48.44-.88.44s-.72-.15-.94-.44l-9.29-14.94c-.18-.29-.44-.42-.77-.39-.33.04-.5.24-.5.61v17.75c0,.37-.13.68-.38.94-.26.26-.57.39-.93.39h-8.28c-.37,0-.68-.13-.93-.39-.26-.26-.38-.57-.38-.94v-37.66c0-.37.13-.68.38-.94.26-.26.57-.39.93-.39h7.68c.37,0,.75.11,1.15.33.4.22.7.48.88.77l10.61,15.55c.22.3.48.44.77.44s.53-.15.72-.44l10.61-15.55c.22-.29.53-.55.93-.77.4-.22.79-.33,1.15-.33h7.68c.37,0,.68.13.93.39.26.26.38.57.38.94Z"/><path class="cls-5" d="m164.7,238.6c-1.07,1.72-2.24,3.29-3.53,4.7-1.29,1.41-2.73,2.61-4.33,3.59-1.6.99-3.37,1.75-5.32,2.3-1.95.55-4.1.82-6.45.82-2.94,0-5.7-.55-8.27-1.65-2.57-1.1-4.82-2.59-6.75-4.47-1.93-1.87-3.45-4.08-4.55-6.62s-1.65-5.24-1.65-8.11.55-5.57,1.65-8.1c1.1-2.54,2.62-4.74,4.55-6.62,1.93-1.87,4.18-3.36,6.75-4.47,2.57-1.1,5.33-1.65,8.27-1.65,2.43,0,4.61.28,6.56.83,1.95.55,3.71,1.32,5.29,2.32,1.58.99,3,2.2,4.27,3.61,1.27,1.42,2.43,2.97,3.5,4.66.18.29.22.61.11.94-.11.33-.33.57-.66.72l-7.83,3.09c-.37.15-.74.15-1.1,0-.37-.15-.64-.37-.83-.66-1.07-1.69-2.35-2.99-3.86-3.89-1.51-.9-3.33-1.35-5.46-1.35-1.4,0-2.71.3-3.94.88-1.23.59-2.31,1.37-3.23,2.35-.92.98-1.64,2.11-2.15,3.4-.52,1.29-.77,2.62-.77,3.98s.26,2.74.77,4.01c.51,1.27,1.23,2.39,2.15,3.35.92.96,1.99,1.73,3.23,2.32,1.23.59,2.55.88,3.94.88,2.02,0,3.85-.49,5.49-1.46,1.64-.97,2.93-2.23,3.89-3.78.18-.29.45-.51.8-.66.35-.15.71-.15,1.08,0l7.83,3.09c.33.15.55.38.66.69.11.31.07.63-.11.97Z"/><path class="cls-2" d="m160.51,235.43c1.99,1.29,3.95,2.3,5.9,3.03,1.95.74,3.77,1.1,5.46,1.1s2.85-.23,3.69-.69,1.27-1.15,1.27-2.07c0-.48-.18-.86-.55-1.13-.37-.28-.85-.51-1.46-.69-.61-.18-1.31-.33-2.12-.44-.81-.11-1.64-.26-2.48-.44-.81-.15-1.76-.32-2.84-.52-1.09-.2-2.2-.5-3.34-.88s-2.27-.87-3.39-1.46c-1.12-.59-2.12-1.34-3.01-2.26-.88-.92-1.59-2.01-2.12-3.28-.53-1.27-.8-2.77-.8-4.49,0-2.54.5-4.63,1.49-6.29s2.25-2.97,3.78-3.94c1.52-.97,3.23-1.65,5.1-2.04s3.69-.58,5.46-.58c3.09,0,5.85.45,8.3,1.35,2.44.9,4.79,2.21,7.03,3.94.29.26.46.57.5.94.04.37-.06.7-.28.99l-4.3,6.12c-.22.29-.52.48-.88.55-.37.07-.7,0-.99-.22-1.87-1.18-3.62-2.01-5.24-2.51-1.62-.5-3.11-.74-4.47-.74-.4,0-.87,0-1.41.03-.53.02-1.04.09-1.52.22-.48.13-.87.34-1.19.63s-.47.7-.47,1.21.39.97,1.16,1.38c.77.41,1.65.75,2.65,1.05.99.29,1.95.52,2.87.69.92.17,1.51.27,1.77.3,1.32.26,2.77.63,4.36,1.13s3.06,1.23,4.44,2.21c1.38.97,2.54,2.24,3.47,3.8.94,1.56,1.41,3.52,1.41,5.87,0,2.21-.39,4.11-1.16,5.71-.77,1.6-1.85,2.91-3.23,3.94s-3.03,1.79-4.96,2.29c-1.93.5-4.07.74-6.42.74-1.91,0-3.69-.16-5.35-.47-1.65-.31-3.2-.74-4.63-1.3-1.43-.55-2.77-1.2-4-1.96-1.23-.75-2.36-1.55-3.39-2.4-.29-.22-.46-.52-.5-.91s.06-.73.28-1.02l4.25-6.12c.22-.29.51-.48.88-.55.37-.07.7-.02.99.17Z"/><path class="cls-8" d="m185.88,235.43c1.99,1.29,3.95,2.3,5.9,3.03,1.95.74,3.77,1.1,5.46,1.1s2.85-.23,3.69-.69,1.27-1.15,1.27-2.07c0-.48-.18-.86-.55-1.13-.37-.28-.85-.51-1.46-.69-.61-.18-1.31-.33-2.12-.44-.81-.11-1.64-.26-2.48-.44-.81-.15-1.76-.32-2.84-.52-1.09-.2-2.2-.5-3.34-.88s-2.27-.87-3.39-1.46c-1.12-.59-2.12-1.34-3.01-2.26-.88-.92-1.59-2.01-2.12-3.28-.53-1.27-.8-2.77-.8-4.49,0-2.54.5-4.63,1.49-6.29s2.25-2.97,3.78-3.94c1.52-.97,3.23-1.65,5.1-2.04s3.69-.58,5.46-.58c3.09,0,5.85.45,8.3,1.35,2.44.9,4.79,2.21,7.03,3.94.29.26.46.57.5.94.04.37-.06.7-.28.99l-4.3,6.12c-.22.29-.52.48-.88.55-.37.07-.7,0-.99-.22-1.87-1.18-3.62-2.01-5.24-2.51-1.62-.5-3.11-.74-4.47-.74-.4,0-.87,0-1.41.03-.53.02-1.04.09-1.52.22-.48.13-.87.34-1.19.63s-.47.7-.47,1.21.39.97,1.16,1.38c.77.41,1.65.75,2.65,1.05.99.29,1.95.52,2.87.69.92.17,1.51.27,1.77.3,1.32.26,2.77.63,4.36,1.13s3.06,1.23,4.44,2.21c1.38.97,2.54,2.24,3.47,3.8.94,1.56,1.41,3.52,1.41,5.87,0,2.21-.39,4.11-1.16,5.71-.77,1.6-1.85,2.91-3.23,3.94s-3.03,1.79-4.96,2.29c-1.93.5-4.07.74-6.42.74-1.91,0-3.69-.16-5.35-.47-1.65-.31-3.2-.74-4.63-1.3-1.43-.55-2.77-1.2-4-1.96-1.23-.75-2.36-1.55-3.39-2.4-.29-.22-.46-.52-.5-.91s.06-.73.28-1.02l4.25-6.12c.22-.29.51-.48.88-.55.37-.07.7-.02.99.17Z"/></svg>